<svg width="20" height="20" viewBox="0 0 20 20" fill="none" xmlns="http://www.w3.org/2000/svg">
<path d="M15.2248 13.9202C15.4736 13.6633 15.5979 13.3571 15.5979 13.0017C15.5979 12.6463 15.4736 12.3442 15.2248 12.0954C14.9759 11.8467 14.6738 11.7223 14.3186 11.7223C13.9632 11.7223 13.657 11.8467 13.4 12.0954C13.1431 12.3442 13.0146 12.6463 13.0146 13.0017C13.0146 13.3571 13.1431 13.6633 13.4 13.9202C13.657 14.1772 13.9632 14.3056 14.3186 14.3056C14.6738 14.3056 14.9759 14.1772 15.2248 13.9202ZM14.2992 16.875C14.7529 16.875 15.165 16.7766 15.5354 16.5798C15.9057 16.3831 16.2159 16.1088 16.4659 15.7569C16.1234 15.5672 15.7741 15.4237 15.4179 15.3265C15.0617 15.2292 14.6913 15.1806 14.3067 15.1806C13.9221 15.1806 13.5493 15.2292 13.1882 15.3265C12.827 15.4237 12.4798 15.5672 12.1465 15.7569C12.3965 16.1088 12.7043 16.3831 13.07 16.5798C13.4359 16.7766 13.8456 16.875 14.2992 16.875ZM10.0007 18.3333C8.0794 17.875 6.48794 16.7813 5.22628 15.0521C3.96475 13.3229 3.33398 11.3611 3.33398 9.16667V4.15271L10.0007 1.65271L16.6673 4.15271V9.47917C16.4497 9.37736 16.2205 9.28591 15.9798 9.20479C15.7391 9.12382 15.5053 9.06715 15.2784 9.03479V5.125L10.0007 3.16667L4.72294 5.125V9.16667C4.72294 10.0879 4.8653 10.9537 5.15003 11.764C5.43475 12.5741 5.8051 13.3021 6.26107 13.9479C6.71704 14.5938 7.23211 15.1481 7.80628 15.611C8.3803 16.0741 8.95669 16.426 9.53544 16.6667C9.64183 16.926 9.79225 17.1922 9.98669 17.4652C10.1811 17.7384 10.3686 17.9653 10.5492 18.1458C10.4613 18.1921 10.3699 18.228 10.275 18.2535C10.18 18.279 10.0886 18.3056 10.0007 18.3333ZM14.3409 18.3333C13.2391 18.3333 12.2981 17.941 11.5179 17.1563C10.7379 16.3715 10.3479 15.4352 10.3479 14.3473C10.3479 13.2367 10.7379 12.2901 11.5179 11.5075C12.2979 10.7247 13.2413 10.3333 14.3479 10.3333C15.4452 10.3333 16.3861 10.7247 17.1709 11.5075C17.9556 12.2901 18.3479 13.2367 18.3479 14.3473C18.3479 15.4352 17.9556 16.3715 17.1709 17.1563C16.3861 17.941 15.4428 18.3333 14.3409 18.3333Z" fill="#004C99"/>
</svg>
